<svg id="WhatsApp_one_screen" data-name="WhatsApp_one screen" xmlns="http://www.w3.org/2000/svg" width="17.906" height="17.969" viewBox="0 0 17.906 17.969">
  <defs>
    <style>
      .cls-1 {
        fill: #25d366;
        fill-rule: evenodd;
      }
    </style>
  </defs>
  <path id="WhatsApp" class="cls-1" d="M392.185,439.076l1.266-4.621a8.917,8.917,0,1,1,7.727,4.467h0a8.908,8.908,0,0,1-4.261-1.086Zm4.947-2.854,0.27,0.16a7.4,7.4,0,0,0,3.773,1.034h0a7.413,7.413,0,1,0-6.279-3.474l0.176,0.281-0.748,2.735Zm8.539-4.1a1.14,1.14,0,0,0-.427-0.261c-0.223-.111-1.319-0.65-1.523-0.725a0.347,0.347,0,0,0-.5.112c-0.149.223-.576,0.725-0.706,0.874a0.341,0.341,0,0,1-.483.055,6.063,6.063,0,0,1-1.791-1.106,6.689,6.689,0,0,1-1.24-1.543,0.325,0.325,0,0,1,.1-0.455c0.1-.1.223-0.26,0.334-0.39a1.55,1.55,0,0,0,.223-0.372,0.409,0.409,0,0,0-.019-0.39c-0.056-.112-0.5-1.209-0.687-1.655a0.444,0.444,0,0,0-.5-0.382c-0.13-.007-0.279-0.008-0.427-0.008a0.818,0.818,0,0,0-.594.279,2.5,2.5,0,0,0-.78,1.858,4.334,4.334,0,0,0,.91,2.306,9.934,9.934,0,0,0,3.806,3.364,12.6,12.6,0,0,0,1.27.469,3.057,3.057,0,0,0,1.4.089,2.3,2.3,0,0,0,1.5-1.06A1.874,1.874,0,0,0,405.671,432.125Z" transform="translate(-392.188 -421.094)"/>
</svg>
